<?xml version="1.0" encoding="UTF-8" standalone="no"?>
<!-- Generator: Adobe Illustrator 21.1.0, SVG Export Plug-In . SVG Version: 6.00 Build 0)  -->

<svg
   xmlns:dc="http://purl.org/dc/elements/1.1/"
   xmlns:cc="http://creativecommons.org/ns#"
   xmlns:rdf="http://www.w3.org/1999/02/22-rdf-syntax-ns#"
   xmlns:svg="http://www.w3.org/2000/svg"
   xmlns="http://www.w3.org/2000/svg"
   xmlns:sodipodi="http://sodipodi.sourceforge.net/DTD/sodipodi-0.dtd"
   xmlns:inkscape="http://www.inkscape.org/namespaces/inkscape"
   version="1.1"
   id="Layer_1"
   x="0px"
   y="0px"
   viewBox="0 0 407.1 90.7"
   style="enable-background:new 0 0 407.1 90.7;"
   xml:space="preserve"
   sodipodi:docname="cloud-tables-logo-regular.svg"
   inkscape:version="0.92.4 (5da689c313, 2019-01-14)"><metadata
   id="metadata328"><rdf:RDF><cc:Work
       rdf:about=""><dc:format>image/svg+xml</dc:format><dc:type
         rdf:resource="http://purl.org/dc/dcmitype/StillImage" /></cc:Work></rdf:RDF></metadata><defs
   id="defs326">
	
	
	
	
	
	
	
	
	
	
	
	
</defs><sodipodi:namedview
   pagecolor="#ffffff"
   bordercolor="#666666"
   borderopacity="1"
   objecttolerance="10"
   gridtolerance="10"
   guidetolerance="10"
   inkscape:pageopacity="0"
   inkscape:pageshadow="2"
   inkscape:window-width="3440"
   inkscape:window-height="1416"
   id="namedview324"
   showgrid="false"
   inkscape:zoom="3.3800049"
   inkscape:cx="303.00587"
   inkscape:cy="10.234566"
   inkscape:window-x="0"
   inkscape:window-y="0"
   inkscape:window-maximized="0"
   inkscape:current-layer="Layer_1" />
<style
   type="text/css"
   id="style269">
	.st0{fill:#16232A;}
	.st1{fill:#458AE0;}
</style>
<g
   id="g293">
	<path
   class="st0"
   d="M121.8,49.5c0-11.8,8.9-19.2,18.8-19.2c10.2,0,15.4,6.2,16.9,12.2l-6.8,2.1c-0.9-3.5-3.7-7.4-10.1-7.4   c-5.5,0-11.3,4-11.3,12.3c0,7.9,5.5,12.2,11.4,12.2c6.3,0,9.4-4.1,10.3-7.5l6.7,2c-1.4,5.7-6.7,12.5-17.1,12.5   C130.4,68.7,121.8,61.3,121.8,49.5z"
   id="path271" />
	<path
   class="st0"
   d="M161.6,67.9V30.3h6.9v37.6H161.6z"
   id="path273" />
	<path
   class="st0"
   d="M199.8,55.1c0,7.9-5.8,13.6-13.4,13.6S173,63,173,55.1c0-7.9,5.8-13.6,13.4-13.6S199.8,47.2,199.8,55.1z    M192.9,55.1c0-4.8-3.1-7.3-6.5-7.3s-6.5,2.4-6.5,7.3c0,4.8,3.1,7.3,6.5,7.3S192.9,60,192.9,55.1z"
   id="path275" />
	<path
   class="st0"
   d="M220.7,65.2c-1.4,2.4-4.4,3.4-7.1,3.4c-6.2,0-9.7-4.5-9.7-10.1V42.3h6.9v14.8c0,2.9,1.5,5.1,4.7,5.1   c3.1,0,4.8-2.1,4.8-5V42.3h6.9v21c0,2,0.2,3.7,0.3,4.6h-6.6C220.8,67.4,220.7,66.2,220.7,65.2z"
   id="path277" />
	<path
   class="st0"
   d="M257.8,63.3c0,1.7,0.1,3.6,0.2,4.6h-6.6c-0.1-0.5-0.3-1.8-0.3-3c-1.1,2-3.7,3.6-7.2,3.6   c-7.3,0-12.5-5.7-12.5-13.5c0-7.5,5-13.4,12.3-13.4c4.4,0,6.5,1.8,7.2,3.2V30.3h6.8V63.3z M244.8,62.3c3.5,0,6.3-2.7,6.3-7.3   c0-4.6-2.8-7.1-6.3-7.1c-3.5,0-6.3,2.6-6.3,7.2S241.2,62.3,244.8,62.3z"
   id="path279" />
	<path
   class="st0"
   d="M283.3,35.8v32.1h-5.1V35.8h-12.3V31h29.7v4.7H283.3z"
   id="path281" />
	<path
   class="st0"
   d="M300.8,53.6l6.8-1c1.5-0.2,1.9-1,1.9-1.9c0-2.4-1.6-4.5-5.4-4.5c-3.4,0-5.4,2.1-5.7,5l-4.7-1.1   c0.5-4.8,4.8-8.1,10.2-8.1c7.5,0,10.4,4.3,10.4,9.2v12.5c0,2.2,0.2,3.5,0.3,4.1h-4.8c-0.1-0.6-0.3-1.6-0.3-3.4   c-1.1,1.8-3.6,4.2-8.1,4.2c-5.1,0-8.4-3.5-8.4-7.5C293.2,56.7,296.5,54.2,300.8,53.6z M309.5,57.2v-1.1l-7.6,1.1   c-2.1,0.3-3.6,1.5-3.6,3.7c0,1.9,1.6,3.6,4.1,3.6C306.3,64.6,309.5,62.7,309.5,57.2z"
   id="path283" />
	<path
   class="st0"
   d="M321,67.9V30.3h4.8v16.2c1.2-2.2,4.1-4.3,8.3-4.3c7.6,0,11.5,5.8,11.5,13.1c0,7.4-4.2,13.3-11.6,13.3   c-3.7,0-6.6-1.6-8.1-4.3v3.6H321z M333.2,46.5c-4.3,0-7.4,3.4-7.4,8.8s3.1,8.9,7.4,8.9c4.5,0,7.4-3.5,7.4-8.9   S337.7,46.5,333.2,46.5z"
   id="path285" />
	<path
   class="st0"
   d="M350.8,67.9V30.3h4.9v37.6H350.8z"
   id="path287" />
	<path
   class="st0"
   d="M384.7,60.8c-1.4,4.4-5.4,7.9-11.2,7.9c-6.7,0-12.6-4.9-12.6-13.4c0-7.9,5.7-13.2,12-13.2   c7.7,0,12,5.3,12,13.1c0,0.6-0.1,1.2-0.1,1.6h-18.8c0.1,4.5,3.3,7.6,7.5,7.6c4.1,0,6.1-2.2,7-5L384.7,60.8z M379.8,52.8   c-0.1-3.6-2.4-6.4-6.9-6.4c-4.1,0-6.6,3.2-6.8,6.4H379.8z"
   id="path289" />
	<path
   class="st0"
   d="M392.1,59.9c0.3,2.6,2.3,4.7,5.8,4.7c2.8,0,4.3-1.6,4.3-3.3c0-1.6-1.1-2.8-3.2-3.2l-4.3-0.9   c-3.9-0.8-6.2-3.5-6.2-7c0-4.3,4-7.9,8.9-7.9c6.9,0,9,4.5,9.5,6.7l-4.3,1.6c-0.2-1.3-1.2-4.2-5.2-4.2c-2.5,0-4.2,1.6-4.2,3.3   c0,1.5,0.9,2.6,2.9,3l4.1,0.9c4.5,1,6.9,3.7,6.9,7.4c0,3.5-3,7.7-9.2,7.7c-6.9,0-9.8-4.4-10.2-7.3L392.1,59.9z"
   id="path291" />
</g>
<g
   id="g297">
		<path
   style="fill:#458ae0"
   inkscape:connector-curvature="0"
   id="path295"
   d="M 71.9,20.7 C 63.8,-13.9 18.7,-1.6 18.7,31.3 v 0 c -24.1,0 -26.6,37.3 2.5,37.3 h 10.6 v -48"
   class="st1" />
	</g><rect
   style="fill:#16232a"
   id="rect299"
   height="11"
   width="30"
   class="st0"
   y="25.700001"
   x="36.799999" /><path
   style="fill:#458ae0"
   inkscape:connector-curvature="0"
   id="path301"
   d="m 62.8,90.7 h -24 c -1.7,0 -3,-1.3 -3,-3 v 0 c 0,-1.7 1.3,-3 3,-3 h 24 c 1.7,0 3,1.3 3,3 v 0 c 0,1.6 -1.3,3 -3,3 z"
   class="st1" /><path
   style="fill:#458ae0"
   inkscape:connector-curvature="0"
   id="path303"
   d="m 81.8,79.7 h -28 c -1.7,0 -3,-1.3 -3,-3 v 0 c 0,-1.7 1.3,-3 3,-3 h 28 c 1.7,0 3,1.3 3,3 v 0 c 0,1.6 -1.3,3 -3,3 z"
   class="st1" /><path
   style="fill:#458ae0"
   inkscape:connector-curvature="0"
   id="path305"
   d="M 42.9,79.7 H 27.1 c -1.7,0 -3,-1.3 -3,-3 v 0 c 0,-1.7 1.3,-3 3,-3 h 15.7 c 1.7,0 3,1.3 3,3 v 0 c 0.1,1.6 -1.3,3 -2.9,3 z"
   class="st1" /><path
   style="fill:#458ae0"
   inkscape:connector-curvature="0"
   id="path307"
   d="m 89.3,20.7 h -9 c -1.7,0 -3,-1.3 -3,-3 v 0 c 0,-1.7 1.3,-3 3,-3 h 9 c 1.7,0 3,1.3 3,3 v 0 c 0,1.6 -1.3,3 -3,3 z"
   class="st1" /><path
   style="fill:#458ae0"
   inkscape:connector-curvature="0"
   id="path309"
   d="m 81.8,10.7 h -5.2 c -1.7,0 -3,-1.3 -3,-3 v 0 c 0,-1.7 1.3,-3 3,-3 h 5.2 c 1.7,0 3,1.3 3,3 v 0 c 0,1.6 -1.3,3 -3,3 z"
   class="st1" /><rect
   style="fill:#16232a"
   id="rect311"
   height="11"
   width="30"
   class="st0"
   y="25.700001"
   x="71.800003" /><rect
   style="fill:#16232a"
   id="rect313"
   height="11"
   width="30"
   class="st0"
   y="41.700001"
   x="36.799999" /><rect
   style="fill:#16232a"
   id="rect315"
   height="11"
   width="30"
   class="st0"
   y="41.700001"
   x="71.800003" /><rect
   style="fill:#16232a"
   id="rect317"
   height="11"
   width="30"
   class="st0"
   y="57.700001"
   x="36.799999" /><rect
   style="fill:#16232a"
   id="rect319"
   height="11"
   width="30"
   class="st0"
   y="57.700001"
   x="71.800003" />
<g
   aria-label="BETA"
   style="font-style:normal;font-weight:normal;font-size:23.26874542px;line-height:1.25;font-family:sans-serif;letter-spacing:0px;word-spacing:0px;fill:#458ae0;fill-opacity:1;stroke:none;stroke-width:0.58171862"
   id="text48"
   transform="translate(0,-4)"><path
     d="m 351.50373,9.1211059 -0.0233,16.6836901 h 6.74794 c 2.44322,0 5.51469,-1.419393 5.51469,-4.327986 0,-3.304162 -2.04765,-3.816074 -3.0482,-4.327987 1.02382,-0.535181 2.48975,-1.209975 2.48975,-3.746268 0,-2.955131 -2.74571,-4.2814491 -5.49142,-4.2814491 z m 3.56012,6.7479361 -0.0233,-3.932418 h 2.88533 c 0.76786,0 1.83823,0.418838 1.83823,1.884769 0,1.46593 -0.7446,1.977843 -1.53574,1.977843 -0.79114,0 -2.11746,0.04654 -3.16455,0.06981 z m 0.0465,7.120236 v -4.211643 l 3.11801,-0.02327 c 1.4892,0 2.02438,0.954018 2.02438,2.02438 0,1.070363 -0.53518,2.163994 -1.69862,2.163994 -1.14017,0 -2.3036,0.02327 -3.44377,0.04654 z"
     style="font-style:normal;font-variant:normal;font-weight:normal;font-stretch:normal;font-family:'Pulp Display';-inkscape-font-specification:'Pulp Display';fill:#458ae0;fill-opacity:1;stroke-width:0.58171862"
     id="path4575"
     inkscape:connector-curvature="0" /><path
     d="m 365.61441,25.804796 h 10.58728 v -2.978399 h -7.23658 v -3.932418 h 6.44544 v -3.001668 h -6.42217 v -3.653193 h 7.16677 V 9.1909122 h -10.54074 z"
     style="font-style:normal;font-variant:normal;font-weight:normal;font-stretch:normal;font-family:'Pulp Display';-inkscape-font-specification:'Pulp Display';fill:#458ae0;fill-opacity:1;stroke-width:0.58171862"
     id="path4577"
     inkscape:connector-curvature="0" /><path
     d="m 382.13885,12.122774 v 13.72856 h 3.44378 v -13.72856 h 4.60721 V 8.9814935 h -12.58839 v 3.1412805 z"
     style="font-style:normal;font-variant:normal;font-weight:normal;font-stretch:normal;font-family:'Pulp Display';-inkscape-font-specification:'Pulp Display';fill:#458ae0;fill-opacity:1;stroke-width:0.58171862"
     id="path4579"
     inkscape:connector-curvature="0" /><path
     d="m 400.89528,9.2141809 6.23602,16.6371531 h -3.49031 l -1.34959,-3.839343 h -6.56178 l -1.37286,3.839343 h -3.49031 l 6.30583,-16.6604218 z m -1.95458,3.3506991 -2.48975,6.654861 h 4.97951 z"
     style="font-style:normal;font-variant:normal;font-weight:normal;font-stretch:normal;font-family:'Pulp Display';-inkscape-font-specification:'Pulp Display';fill:#458ae0;fill-opacity:1;stroke-width:0.58171862"
     id="path4581"
     inkscape:connector-curvature="0" /></g></svg>